<?xml version="1.0" encoding="utf-8"?>
<!-- Generator: Adobe Illustrator 19.0.0, SVG Export Plug-In . SVG Version: 6.00 Build 0)  -->
<svg version="1.1" id="Layer_1" xmlns="http://www.w3.org/2000/svg" xmlns:xlink="http://www.w3.org/1999/xlink" x="0px" y="0px"
	 viewBox="0 0 100 100" style="enable-background:new 0 0 100 100;" xml:space="preserve">
<style type="text/css">
	.st0{enable-background:new    ;}
	.st1{fill:#DEDEDD;}
</style>
<g class="st0">
	<path class="st1" d="M66,52.3v3.4c-0.3,0-0.5,0-0.8-0.1c-0.2-0.1-0.4-0.2-0.6-0.3c-0.1-0.1-0.3-0.3-0.6-0.5
		c-0.3-0.3-0.6-0.5-0.8-0.7c-0.2-0.2-0.6-0.3-1-0.5c-0.5-0.2-1-0.2-1.5-0.2c-0.5,0-1.1,0.1-1.5,0.2c-0.5,0.2-0.8,0.3-1,0.5
		c-0.2,0.2-0.5,0.4-0.8,0.7c-0.3,0.2-0.5,0.4-0.6,0.5c-0.1,0.1-0.3,0.2-0.6,0.3s-0.5,0.1-0.8,0.1c-0.4,0-0.8-0.1-1-0.2
		c-0.3-0.1-0.6-0.4-0.9-0.7c-0.3-0.3-0.6-0.5-0.8-0.7c-0.2-0.2-0.6-0.3-1-0.5c-0.5-0.2-1-0.2-1.5-0.2c-0.5,0-1,0.1-1.5,0.3
		c-0.5,0.2-0.8,0.3-1,0.5c-0.2,0.1-0.5,0.4-0.9,0.7c-0.2,0.2-0.4,0.4-0.6,0.5c-0.1,0.1-0.3,0.2-0.6,0.3c-0.2,0.1-0.5,0.1-0.8,0.1
		c-0.4,0-0.8-0.1-1-0.2s-0.6-0.4-0.9-0.7c-0.3-0.3-0.6-0.5-0.8-0.7c-0.2-0.2-0.6-0.3-1.1-0.5c-0.5-0.2-1-0.2-1.5-0.2
		c-0.5,0-1.1,0.1-1.5,0.2c-0.5,0.2-0.8,0.3-1,0.5c-0.2,0.2-0.5,0.4-0.8,0.7c-0.4,0.3-0.7,0.5-0.9,0.7s-0.6,0.2-1,0.2v-3.4
		c0-1,0.3-1.8,1-2.4c0.7-0.7,1.5-1,2.4-1h1.1v-8h4.6v8h4.6v-8h4.6v8h4.6v-8h4.6v8h1.1c1,0,1.8,0.3,2.4,1C65.7,50.6,66,51.4,66,52.3z
		 M66,58v6.9H34V58c0.5,0,1-0.1,1.5-0.2c0.5-0.2,0.8-0.3,1.1-0.5c0.2-0.2,0.5-0.4,0.8-0.7c0.4-0.3,0.7-0.5,0.9-0.7
		c0.3-0.1,0.6-0.2,1-0.2c0.3,0,0.5,0,0.8,0.1c0.2,0.1,0.4,0.2,0.6,0.3c0.1,0.1,0.3,0.3,0.6,0.5c0.3,0.3,0.6,0.5,0.8,0.7
		c0.2,0.2,0.6,0.3,1,0.5c0.5,0.2,1,0.2,1.5,0.2c0.5,0,1-0.1,1.5-0.3c0.5-0.2,0.8-0.3,1-0.5c0.2-0.1,0.5-0.4,0.9-0.7
		c0.2-0.2,0.4-0.4,0.6-0.5c0.1-0.1,0.3-0.2,0.6-0.3c0.2-0.1,0.5-0.1,0.8-0.1c0.4,0,0.8,0.1,1,0.2s0.6,0.4,0.9,0.7
		c0.3,0.3,0.6,0.5,0.8,0.7c0.2,0.2,0.6,0.3,1.1,0.5c0.5,0.2,1,0.2,1.5,0.2c0.5,0,1-0.1,1.5-0.2c0.5-0.2,0.8-0.3,1.1-0.5
		c0.2-0.2,0.5-0.4,0.8-0.7c0.4-0.3,0.7-0.5,0.9-0.7s0.6-0.2,1-0.2c0.4,0,0.7,0.1,1,0.2s0.6,0.4,0.9,0.7c0.3,0.3,0.6,0.5,0.8,0.7
		c0.2,0.2,0.6,0.3,1.1,0.5C65,58,65.5,58,66,58z M43.1,36.9c0,0.9-0.2,1.6-0.6,2.1s-1,0.7-1.6,0.7c-0.6,0-1.2-0.2-1.6-0.7
		c-0.4-0.4-0.7-1-0.7-1.6c0-0.3,0.1-0.6,0.2-0.9c0.1-0.3,0.3-0.5,0.4-0.6c0.2-0.1,0.4-0.3,0.6-0.5c0.2-0.2,0.4-0.4,0.6-0.6
		c0.2-0.2,0.3-0.4,0.4-0.8c0.1-0.3,0.2-0.7,0.2-1.2c0.5,0,0.9,0.4,1.5,1.3C42.9,35.1,43.1,36,43.1,36.9z M52.3,36.9
		c0,0.9-0.2,1.6-0.6,2.1c-0.4,0.5-1,0.7-1.6,0.7c-0.6,0-1.2-0.2-1.6-0.7c-0.4-0.4-0.7-1-0.7-1.6c0-0.3,0.1-0.6,0.2-0.9
		s0.3-0.5,0.4-0.6c0.2-0.1,0.4-0.3,0.6-0.5c0.2-0.2,0.4-0.4,0.6-0.6c0.2-0.2,0.3-0.4,0.4-0.8c0.1-0.3,0.2-0.7,0.2-1.2
		c0.5,0,0.9,0.4,1.5,1.3C52,35.1,52.3,36,52.3,36.9z M61.4,36.9c0,0.9-0.2,1.6-0.6,2.1s-1,0.7-1.6,0.7c-0.6,0-1.2-0.2-1.6-0.7
		s-0.7-1-0.7-1.6c0-0.3,0.1-0.6,0.2-0.9c0.1-0.3,0.3-0.5,0.4-0.6c0.2-0.1,0.4-0.3,0.6-0.5s0.4-0.4,0.6-0.6s0.3-0.4,0.4-0.8
		c0.1-0.3,0.2-0.7,0.2-1.2c0.5,0,0.9,0.4,1.5,1.3C61.2,35.1,61.4,36,61.4,36.9z"/>
</g>
</svg>
