<?xml version="1.0" encoding="utf-8"?>
<!-- Generator: Adobe Illustrator 19.0.0, SVG Export Plug-In . SVG Version: 6.00 Build 0)  -->
<svg version="1.1" id="Layer_1" xmlns="http://www.w3.org/2000/svg" xmlns:xlink="http://www.w3.org/1999/xlink" x="0px" y="0px"
	 viewBox="0 0 100 100" style="enable-background:new 0 0 100 100;" xml:space="preserve">
<style type="text/css">
	.st0{enable-background:new    ;}
	.st1{fill:#DEDEDD;}
</style>
<g class="st0">
	<path class="st1" d="M61.4,51.7c0,0.5-0.2,0.9-0.5,1.2c-0.3,0.3-0.7,0.5-1.2,0.5c-0.6,0-1.1-0.3-1.4-0.8l-4.1-6.1h-0.8V49l4.4,7.3
		c0.1,0.2,0.2,0.4,0.2,0.6c0,0.3-0.1,0.6-0.3,0.8c-0.2,0.2-0.5,0.3-0.8,0.3h-3.4v4.9c0,0.5-0.2,1-0.6,1.4c-0.4,0.4-0.9,0.6-1.4,0.6
		h-2.9c-0.5,0-1-0.2-1.4-0.6c-0.4-0.4-0.6-0.9-0.6-1.4V58h-3.4c-0.3,0-0.6-0.1-0.8-0.3c-0.2-0.2-0.3-0.5-0.3-0.8
		c0-0.2,0.1-0.4,0.2-0.6l4.4-7.3v-2.4h-0.8l-4.1,6.1c-0.3,0.5-0.8,0.8-1.4,0.8c-0.5,0-0.9-0.2-1.2-0.5c-0.3-0.3-0.5-0.7-0.5-1.2
		c0-0.3,0.1-0.7,0.3-0.9l4.6-6.9c0.9-1.3,1.9-1.9,3.1-1.9h6.9c1.2,0,2.3,0.6,3.1,1.9l4.6,6.9C61.3,51.1,61.4,51.4,61.4,51.7z
		 M52.8,34.6c0.8,0.8,1.2,1.7,1.2,2.8c0,1.1-0.4,2.1-1.2,2.8c-0.8,0.8-1.7,1.2-2.8,1.2s-2.1-0.4-2.8-1.2c-0.8-0.8-1.2-1.7-1.2-2.8
		c0-1.1,0.4-2,1.2-2.8c0.8-0.8,1.7-1.2,2.8-1.2S52.1,33.9,52.8,34.6z"/>
</g>
</svg>
