<?xml version="1.0" encoding="utf-8"?>
<!-- Generator: Adobe Illustrator 19.0.0, SVG Export Plug-In . SVG Version: 6.00 Build 0)  -->
<svg version="1.1" id="Layer_1" xmlns="http://www.w3.org/2000/svg" xmlns:xlink="http://www.w3.org/1999/xlink" x="0px" y="0px"
	 viewBox="0 0 100 100" style="enable-background:new 0 0 100 100;" xml:space="preserve">
<style type="text/css">
	.st0{enable-background:new    ;}
	.st1{fill:#DEDEDD;}
</style>
<g class="st0">
	<path class="st1" d="M43.1,37c2.1-1.2,4.4-1.8,6.9-1.8c2.5,0,4.8,0.6,6.9,1.8c2.1,1.2,3.8,2.9,5,5c1.2,2.1,1.8,4.4,1.8,6.9
		s-0.6,4.8-1.8,6.9c-1.2,2.1-2.9,3.8-5,5c-2.1,1.2-4.4,1.8-6.9,1.8c-2.5,0-4.8-0.6-6.9-1.8c-2.1-1.2-3.8-2.9-5-5
		c-1.2-2.1-1.8-4.4-1.8-6.9s0.6-4.8,1.8-6.9C39.4,39.9,41,38.2,43.1,37z M54.9,44.5c0,0-0.1,0.1-0.2,0.2c-0.1,0.1-0.2,0.2-0.2,0.2
		c0,0,0.1,0,0.1-0.1c0-0.1,0.1-0.1,0.1-0.2c0-0.1,0.1-0.1,0.1-0.1c0.1-0.1,0.2-0.2,0.4-0.3c0.2-0.1,0.5-0.1,0.9-0.2
		c0.4-0.1,0.7,0,0.9,0.2c0,0,0-0.1,0.2-0.2c0.1-0.1,0.2-0.2,0.3-0.2c0,0,0.1-0.1,0.3-0.1c0.1,0,0.2-0.1,0.3-0.1l0-0.4
		c-0.1,0-0.2,0-0.3-0.1c-0.1-0.1-0.1-0.2-0.1-0.4c0,0,0,0.1-0.1,0.1c0-0.1,0-0.1-0.1-0.1s-0.1,0-0.2,0c-0.1,0-0.1,0-0.2,0
		c-0.1,0-0.2-0.1-0.3-0.1c-0.1-0.1-0.1-0.2-0.1-0.3c0-0.1-0.1-0.2-0.1-0.3c0-0.1-0.1-0.1-0.2-0.2c-0.1-0.1-0.1-0.1-0.2-0.2
		c0,0,0-0.1,0-0.1c0,0,0-0.1-0.1-0.1c0,0,0-0.1-0.1-0.1c0,0-0.1,0-0.1,0c0,0-0.1,0-0.1,0.1c0,0.1-0.1,0.1-0.1,0.2
		c0,0.1-0.1,0.1-0.1,0.1c0,0-0.1,0-0.1,0c0,0-0.1,0-0.1,0c0,0,0,0-0.1,0.1c0,0-0.1,0.1-0.1,0.1c0,0-0.1,0-0.2,0.1s-0.1,0-0.2,0
		c0.2-0.1,0.2-0.1,0-0.2c-0.1,0-0.2-0.1-0.3-0.1c0.1,0,0.2-0.1,0.1-0.2c0-0.1-0.1-0.2-0.2-0.2h0.1c0,0-0.1-0.1-0.2-0.2
		c-0.1-0.1-0.2-0.1-0.3-0.2c-0.1,0-0.2-0.1-0.2-0.1c-0.1-0.1-0.3-0.1-0.6-0.2s-0.5-0.1-0.6,0c-0.1,0.1-0.1,0.1-0.1,0.2
		s0,0.1,0.1,0.2c0,0.1,0.1,0.2,0.1,0.2c0,0.1,0,0.1-0.1,0.2s-0.1,0.2-0.1,0.2c0,0.1,0.1,0.2,0.2,0.3s0.2,0.2,0.2,0.4
		c0,0.1-0.1,0.2-0.3,0.3c-0.2,0.1-0.2,0.2-0.3,0.2c-0.1,0.1-0.1,0.2,0,0.3c0,0.1,0.1,0.2,0.2,0.3c0,0,0,0,0,0.1c0,0,0,0.1-0.1,0.1
		c0,0-0.1,0.1-0.1,0.1c0,0-0.1,0-0.1,0.1l-0.1,0c-0.1,0.1-0.3,0-0.4-0.1c-0.1-0.1-0.2-0.3-0.2-0.5c-0.1-0.3-0.2-0.5-0.3-0.5
		c-0.3-0.1-0.4-0.1-0.5,0c-0.1-0.2-0.3-0.3-0.7-0.5c-0.3-0.1-0.6-0.1-1-0.1c0.1,0,0.1-0.1,0-0.3c-0.1-0.2-0.2-0.2-0.3-0.2
		c0-0.1,0.1-0.2,0.1-0.3c0-0.1,0-0.2,0-0.2c0-0.2,0.1-0.3,0.2-0.4c0,0,0.1-0.1,0.1-0.2c0.1-0.1,0.1-0.2,0.2-0.2c0-0.1,0-0.1,0-0.1
		c0.4,0,0.7,0,0.9-0.2c0.1-0.1,0.1-0.2,0.2-0.3c0.1-0.1,0.1-0.2,0.2-0.3c0.1-0.1,0.2-0.1,0.2-0.1c0.1,0,0.1,0,0.3,0.1
		c0.1,0.1,0.2,0.1,0.3,0.1c0.2,0,0.3-0.1,0.3-0.2c0-0.1,0-0.3-0.1-0.4c0.1,0,0.2-0.1,0.1-0.3c0-0.1-0.1-0.1-0.1-0.2
		c-0.1,0-0.3,0-0.5,0.1c-0.1,0-0.1,0.1,0,0.1c0,0-0.1,0.1-0.2,0.2c-0.1,0.1-0.2,0.2-0.3,0.3s-0.2,0-0.3-0.1c0,0,0-0.1-0.1-0.2
		c-0.1-0.1-0.1-0.2-0.2-0.2c-0.1,0-0.2,0.1-0.3,0.3c0-0.1,0-0.2-0.2-0.3c-0.2-0.1-0.3-0.1-0.4-0.1c0.2-0.1,0.2-0.3-0.1-0.5
		c-0.1,0-0.2-0.1-0.4-0.1c-0.2,0-0.3,0-0.3,0.1c-0.1,0.1-0.1,0.2-0.1,0.2s0,0.1,0.1,0.1c0.1,0,0.1,0.1,0.2,0.1c0.1,0,0.1,0,0.2,0.1
		c0.1,0,0.1,0,0.2,0.1c0.2,0.1,0.2,0.2,0.1,0.2c0,0-0.1,0-0.2,0.1c-0.1,0-0.1,0.1-0.2,0.1c-0.1,0-0.1,0-0.1,0.1c0,0,0,0.1,0,0.2
		s0,0.2,0,0.2c-0.1-0.1-0.1-0.2-0.2-0.3c0-0.1-0.1-0.2-0.1-0.3c0.1,0.1-0.1,0.1-0.4,0.1l-0.2,0c0,0-0.1,0-0.3,0c-0.1,0-0.3,0-0.4,0
		s-0.2-0.1-0.2-0.1c0-0.1,0-0.2,0-0.4c0,0,0-0.1,0.1,0c0,0-0.1-0.1-0.2-0.2c-0.1-0.1-0.1-0.1-0.2-0.2c-0.5,0.2-1.1,0.4-1.7,0.7
		c0.1,0,0.1,0,0.2,0c0.1,0,0.1-0.1,0.2-0.1c0.1-0.1,0.2-0.1,0.2-0.1c0.4-0.2,0.7-0.2,0.8-0.1l0.1-0.1c0.2,0.2,0.3,0.3,0.4,0.4
		c-0.1,0-0.3-0.1-0.5,0c-0.2,0.1-0.4,0.1-0.4,0.2c0.1,0.1,0.1,0.2,0.1,0.3c0,0-0.1-0.1-0.2-0.2c-0.1-0.1-0.2-0.1-0.3-0.2
		c-0.1,0-0.2-0.1-0.3-0.1c-0.2,0-0.3,0-0.4,0c-1.7,1-3.1,2.3-4.2,4c0.1,0.1,0.2,0.1,0.2,0.1c0,0,0.1,0.1,0.1,0.2c0,0.1,0,0.2,0,0.2
		c0,0,0.1,0,0.2-0.1c0.1,0.1,0.1,0.2,0.1,0.3c0,0,0.3,0.1,0.8,0.5c0.2,0.2,0.4,0.3,0.4,0.4c0,0.1,0,0.2-0.2,0.3c0,0-0.1-0.1-0.2-0.2
		c-0.1-0.1-0.1-0.1-0.2-0.1c0,0.1,0,0.2,0,0.3c0,0.2,0.1,0.2,0.2,0.2c-0.1,0-0.1,0.1-0.2,0.3c0,0.2,0,0.4,0,0.6c0,0.2,0,0.4,0,0.4
		l0,0c0,0.1,0,0.3,0.1,0.6c0.1,0.3,0.2,0.4,0.4,0.3c-0.2,0,0,0.3,0.4,0.8c0.1,0.1,0.1,0.1,0.1,0.2c0,0,0.1,0.1,0.2,0.1
		s0.2,0.1,0.3,0.2c0.1,0.1,0.1,0.1,0.2,0.2c0,0.1,0.1,0.2,0.2,0.4c0.1,0.2,0.2,0.3,0.2,0.4c0,0.1,0,0.2,0.2,0.4s0.2,0.3,0.2,0.4
		c0,0,0,0,0,0s0,0,0,0c0,0.1,0.1,0.2,0.3,0.2s0.2,0.2,0.3,0.2c0,0,0,0.1,0,0.2c0,0.1,0,0.1,0.1,0.2c0,0,0.1,0.1,0.1,0
		c0-0.2-0.1-0.6-0.4-1.1C44.1,50,44,49.8,44,49.8c0-0.1-0.1-0.2-0.1-0.3s-0.1-0.2-0.1-0.3c0,0,0.1,0,0.1,0c0,0,0.1,0,0.2,0.1
		c0.1,0,0.1,0,0.1,0.1c0,0,0,0,0,0.1c0,0.1,0,0.2,0,0.3s0.1,0.2,0.2,0.3c0.1,0.1,0.2,0.2,0.3,0.3c0.1,0.1,0.2,0.2,0.2,0.2
		c0.1,0.1,0.2,0.2,0.2,0.3c0.1,0.2,0.1,0.2,0,0.2c0.1,0,0.2,0.1,0.4,0.2s0.2,0.2,0.3,0.3c0.1,0.1,0.1,0.2,0.1,0.5
		c0,0.2,0.1,0.4,0.1,0.4c0,0.1,0.1,0.2,0.2,0.2c0.1,0.1,0.2,0.1,0.2,0.2c0.1,0,0.2,0.1,0.3,0.1c0.1,0.1,0.2,0.1,0.2,0.1
		c0.1,0,0.2,0.1,0.3,0.2c0.2,0.1,0.3,0.2,0.4,0.2c0.1,0,0.2,0.1,0.3,0.1s0.2,0,0.3,0c0.1,0,0.2,0,0.2-0.1c0.2,0,0.4,0.1,0.5,0.3
		c0.2,0.2,0.3,0.3,0.4,0.4c0.4,0.2,0.8,0.3,1,0.2c0,0,0,0.1,0,0.1c0,0.1,0.1,0.2,0.1,0.3c0.1,0.1,0.1,0.2,0.2,0.3
		c0,0.1,0.1,0.1,0.1,0.2c0.1,0.1,0.2,0.2,0.3,0.3c0.2,0.1,0.3,0.2,0.3,0.3c0.1,0,0.1-0.1,0.1-0.2c0,0.1,0,0.2,0.1,0.4
		c0.1,0.1,0.2,0.2,0.3,0.2c0.2,0,0.2-0.2,0.2-0.6c-0.4,0.2-0.7,0.1-0.9-0.3c0,0,0,0,0-0.1c0-0.1-0.1-0.1-0.1-0.2c0,0,0-0.1,0-0.2
		c0-0.1,0-0.1,0-0.1c0,0,0-0.1,0.1-0.1c0.1,0,0.2,0,0.2-0.1s0-0.1,0-0.2c0-0.1-0.1-0.2-0.1-0.2c0-0.1-0.1-0.2-0.2-0.4
		c-0.1-0.1-0.2-0.2-0.2-0.3c-0.1,0.1-0.2,0.2-0.3,0.1s-0.2-0.1-0.3-0.2c0,0,0,0,0,0.1s0,0.1,0,0.1c-0.2,0-0.2,0-0.3,0
		c0,0,0-0.1,0-0.3c0-0.2,0-0.3,0.1-0.4c0,0,0-0.1,0.1-0.2c0.1-0.1,0.1-0.2,0.1-0.3c0-0.1,0.1-0.2,0.1-0.2s0-0.1-0.1-0.2
		s-0.2-0.1-0.3,0c-0.2,0-0.4,0.1-0.5,0.4c0,0,0,0.1-0.1,0.2s-0.1,0.2-0.1,0.2c0,0-0.1,0.1-0.2,0.1c-0.1,0-0.2,0-0.4,0
		c-0.2,0-0.3,0-0.4-0.1c-0.2-0.1-0.3-0.3-0.4-0.5c-0.1-0.2-0.2-0.5-0.2-0.7c0-0.1,0-0.3,0-0.5s0-0.3,0.1-0.4c0-0.1,0-0.2-0.1-0.4
		c0,0,0.1-0.1,0.2-0.2c0.1-0.1,0.1-0.2,0.2-0.2c0,0,0.1,0,0.1,0s0.1,0,0.1,0c0,0,0,0,0.1,0c0,0,0-0.1,0.1-0.1c0,0,0,0-0.1-0.1
		c0,0-0.1-0.1-0.1-0.1c0.1,0,0.3,0,0.5,0c0.3-0.1,0.4,0,0.5,0c0.2,0.1,0.3,0.1,0.4,0c0,0,0-0.1,0-0.2c0-0.1,0-0.2,0-0.2
		c0.1,0.3,0.2,0.4,0.5,0.2c0,0,0.1,0.1,0.3,0.1c0.1,0,0.3,0.1,0.3,0.1c0,0,0.1,0.1,0.1,0.1c0,0,0.1,0.1,0.1,0.1s0,0,0.1,0
		c0,0,0.1-0.1,0.2-0.1c0.1,0.2,0.2,0.3,0.2,0.4c0.1,0.5,0.2,0.7,0.3,0.8c0.1,0,0.1,0,0.2,0c0,0,0.1-0.1,0.1-0.2c0-0.1,0-0.2,0-0.2
		s0-0.1,0-0.2l0-0.1c0-0.1,0-0.2,0-0.3l0-0.1c-0.2,0-0.3-0.1-0.3-0.2c0-0.1,0-0.2,0-0.3c0.1-0.1,0.1-0.2,0.3-0.3c0,0,0.1,0,0.1-0.1
		c0.1,0,0.2-0.1,0.3-0.1c0.1,0,0.2-0.1,0.2-0.1c0.2-0.2,0.3-0.4,0.3-0.6c0.1,0,0.1-0.1,0.2-0.2c0,0,0,0-0.1-0.1c0,0-0.1-0.1-0.1-0.1
		c0,0-0.1,0-0.1,0c0.1-0.1,0.1-0.2,0-0.3c0.1,0,0.1-0.1,0.1-0.2c0-0.1,0.1-0.2,0.1-0.2c0.1,0.1,0.2,0.2,0.4,0c0.1-0.1,0.1-0.2,0-0.3
		c0.1-0.1,0.2-0.1,0.4-0.2s0.3-0.1,0.3-0.2c0.1,0,0.1,0,0.1,0c0,0,0-0.1,0-0.2c0-0.1,0-0.2,0.1-0.2c0-0.1,0.1-0.1,0.3-0.2
		c0.1,0,0.2-0.1,0.2-0.1l0.3-0.2c0,0,0-0.1,0-0.1c0.2,0,0.4,0,0.6-0.2c0.1-0.1,0.1-0.2-0.1-0.4c0-0.1,0-0.1-0.1-0.2
		s-0.2-0.1-0.3-0.1c0,0,0.1,0,0.2,0c0.1,0,0.2,0,0.2,0c0.2-0.1,0.1-0.2-0.1-0.3C55.5,44.2,55.2,44.3,54.9,44.5z M52,60.1
		c2.5-0.4,4.5-1.6,6.3-3.4c0,0-0.1-0.1-0.2-0.1s-0.2,0-0.2-0.1c-0.2-0.1-0.4-0.1-0.4-0.1c0-0.1,0-0.2,0-0.2s-0.1-0.1-0.1-0.2
		c-0.1,0-0.1-0.1-0.2-0.1s-0.2-0.1-0.2-0.1c0,0-0.1-0.1-0.1-0.1c-0.1,0-0.1-0.1-0.1-0.1c0,0-0.1,0-0.1-0.1c-0.1,0-0.1,0-0.2,0
		c0,0-0.1,0-0.2,0l-0.1,0c0,0-0.1,0-0.1,0s-0.1,0-0.1,0.1c0,0-0.1,0-0.1,0.1s0,0,0,0c-0.2-0.2-0.5-0.3-0.6-0.4c-0.1,0-0.1,0-0.2-0.1
		s-0.1-0.1-0.2-0.1c-0.1,0-0.1,0-0.2,0c-0.1,0-0.1,0.1-0.2,0.1c-0.1,0.1-0.1,0.1-0.1,0.3s0,0.2,0,0.2c-0.1-0.1-0.1-0.2,0-0.3
		c0.1-0.1,0.1-0.3,0-0.3c0-0.1-0.1-0.1-0.2-0.1c-0.1,0-0.2,0-0.2,0.1s-0.1,0.1-0.2,0.2c-0.1,0.1-0.1,0.1-0.2,0.1c0,0-0.1,0-0.2,0.1
		c-0.1,0.1-0.1,0.1-0.2,0.1c0,0-0.1,0.1-0.1,0.2c0,0.1-0.1,0.2-0.1,0.2c0,0-0.1-0.1-0.2-0.1c-0.1,0-0.2-0.1-0.2-0.1
		c0,0.1,0,0.3,0.1,0.6c0,0.3,0.1,0.5,0.1,0.7c0.1,0.4,0,0.7-0.2,0.9c-0.3,0.3-0.5,0.5-0.5,0.7c0,0.3,0,0.4,0.2,0.5
		c0,0.1,0,0.2-0.1,0.4c-0.1,0.2-0.1,0.3-0.1,0.4C51.9,59.9,52,60,52,60.1z"/>
</g>
</svg>
