<?xml version="1.0" encoding="utf-8"?>
<!-- Generator: Adobe Illustrator 19.0.0, SVG Export Plug-In . SVG Version: 6.00 Build 0)  -->
<svg version="1.1" id="Layer_1" xmlns="http://www.w3.org/2000/svg" xmlns:xlink="http://www.w3.org/1999/xlink" x="0px" y="0px"
	 viewBox="0 0 100 100" style="enable-background:new 0 0 100 100;" xml:space="preserve">
<style type="text/css">
	.st0{enable-background:new    ;}
	.st1{fill:#DEDEDD;}
</style>
<g class="st0">
	<path class="st1" d="M59.1,45.5v7.4c0,0.5-0.2,0.9-0.5,1.2c-0.3,0.3-0.7,0.5-1.2,0.5c-0.5,0-0.9-0.2-1.2-0.5
		c-0.3-0.3-0.5-0.7-0.5-1.2v-6.3h-1.1v16.3c0,0.5-0.2,1-0.6,1.4c-0.4,0.4-0.9,0.6-1.4,0.6c-0.5,0-1-0.2-1.4-0.6
		c-0.4-0.4-0.6-0.9-0.6-1.4v-8.3h-1.1v8.3c0,0.5-0.2,1-0.6,1.4c-0.4,0.4-0.9,0.6-1.4,0.6s-1-0.2-1.4-0.6c-0.4-0.4-0.6-0.9-0.6-1.4
		V46.6h-1.1v6.3c0,0.5-0.2,0.9-0.5,1.2c-0.3,0.3-0.7,0.5-1.2,0.5c-0.5,0-0.9-0.2-1.2-0.5c-0.3-0.3-0.5-0.7-0.5-1.2v-7.4
		c0-1,0.3-1.8,1-2.4c0.7-0.7,1.5-1,2.4-1h11.4c1,0,1.8,0.3,2.4,1C58.8,43.7,59.1,44.5,59.1,45.5z M52.8,34.6
		c0.8,0.8,1.2,1.7,1.2,2.8c0,1.1-0.4,2.1-1.2,2.8c-0.8,0.8-1.7,1.2-2.8,1.2c-1.1,0-2.1-0.4-2.8-1.2c-0.8-0.8-1.2-1.7-1.2-2.8
		c0-1.1,0.4-2,1.2-2.8c0.8-0.8,1.7-1.2,2.8-1.2C51.1,33.5,52.1,33.9,52.8,34.6z"/>
</g>
</svg>
